<svg width="32" height="32" viewBox="0 0 32 32" fill="none" xmlns="http://www.w3.org/2000/svg">
<rect width="32" height="32" rx="6" fill="#262626"/>
<path d="M6 7H8.5L10.5 21H21M21 21C19.8954 21 19 21.8954 19 23C19 24.1046 19.8954 25 21 25C22.1046 25 23 24.1046 23 23C23 21.8954 22.1046 21 21 21ZM10.0714 18H22L25 9H8.78571M15 23C15 24.1046 14.1046 25 13 25C11.8954 25 11 24.1046 11 23C11 21.8954 11.8954 21 13 21C14.1046 21 15 21.8954 15 23Z" stroke="#FCFCFC" stroke-linecap="round" stroke-linejoin="round"/>
</svg>
